<svg width="16" height="19" viewBox="0 0 16 19" fill="none" xmlns="http://www.w3.org/2000/svg">
<path d="M2.93824 7.60181H9.26518C9.60078 7.60181 9.92264 7.73512 10.1599 7.97243C10.3973 8.20974 10.5306 8.53159 10.5306 8.8672V15.1941C10.5306 15.8653 10.2639 16.5091 9.78932 16.9837C9.31471 17.4583 8.671 17.7249 7.99979 17.7249H4.20363C3.53242 17.7249 2.88871 17.4583 2.4141 16.9837C1.93949 16.5091 1.67285 15.8653 1.67285 15.1941V8.8672C1.67285 8.53159 1.80617 8.20974 2.04348 7.97243C2.28078 7.73512 2.60264 7.60181 2.93824 7.60181V7.60181Z" stroke="#2D304D" stroke-width="1.5" stroke-linecap="round" stroke-linejoin="round"/>
<path d="M10.5308 8.86719H11.1635C12.0025 8.86719 12.8071 9.20048 13.4004 9.79375C13.9936 10.387 14.3269 11.1917 14.3269 12.0307C14.3269 12.8697 13.9936 13.6743 13.4004 14.2676C12.8071 14.8608 12.0025 15.1941 11.1635 15.1941H10.5308" stroke="#2D304D" stroke-width="1.5" stroke-linecap="round" stroke-linejoin="round"/>
<path d="M4.20361 1.2749V3.80568" stroke="#2D304D" stroke-width="1.5" stroke-linecap="round" stroke-linejoin="round"/>
<path d="M8 1.2749V3.80568" stroke="#2D304D" stroke-width="1.5" stroke-linecap="round" stroke-linejoin="round"/>
</svg>
