<svg width="8" height="11" viewBox="0 0 8 11" fill="none" xmlns="http://www.w3.org/2000/svg">
<path d="M6.22976 6.8697C6.22976 6.59406 6.00631 6.37062 5.73067 6.37062C5.45503 6.37063 5.23158 6.59408 5.23159 6.86972C5.23159 6.98525 5.20869 7.09968 5.16418 7.20643C5.11967 7.31318 5.0544 7.41018 4.97206 7.49182C4.88973 7.57346 4.79195 7.63812 4.68433 7.68203C4.5767 7.72594 4.46139 7.74821 4.34504 7.74752C4.0694 7.7459 3.84464 7.96802 3.84301 8.24366C3.84138 8.51929 4.06351 8.74406 4.33915 8.74568C4.58672 8.74715 4.83217 8.69977 5.0614 8.60625C5.29062 8.51273 5.49913 8.3749 5.67489 8.20061C5.85066 8.02632 5.99021 7.81902 6.08547 7.5906C6.18072 7.36217 6.22977 7.11717 6.22976 6.8697Z" fill="#2D304D"/>
<path fill-rule="evenodd" clip-rule="evenodd" d="M3.24751 0.5C3.1114 0.5 2.97761 0.535733 2.85959 0.603701C2.81228 0.630946 2.76976 0.665768 2.73373 0.70678C2.62508 0.830437 2.56501 0.989481 2.56501 1.15434C2.56501 1.29688 2.60992 1.43507 2.69231 1.54981C3.05314 2.18683 3.27648 2.94923 3.28449 3.66218C3.29055 4.20162 3.17459 4.68798 2.92599 5.07794C2.69944 4.83093 2.51101 4.55051 2.36779 4.24578C2.30909 4.12088 2.2013 4.02586 2.07002 3.98331C1.93874 3.94075 1.7957 3.95444 1.67489 4.02114C1.15954 4.30565 0.732932 4.72686 0.44235 5.23834C0.151763 5.74983 0.00857698 6.33161 0.0287229 6.91936L0.0292017 6.93C0.0567966 7.42565 0.182531 7.91089 0.399108 8.35772C0.615683 8.80455 0.918793 9.20408 1.29088 9.53331C1.66297 9.86252 2.09667 10.1149 2.56693 10.276C3.01223 10.4285 3.48145 10.5143 3.9755 10.4886C4.47666 10.5303 4.98685 10.4552 5.44682 10.3043C5.92842 10.1464 6.37205 9.89057 6.74967 9.55291C7.1273 9.21524 7.43072 8.80308 7.6407 8.34239C7.84964 7.88399 7.96153 7.3875 7.96938 6.88397C8.06512 4.60287 6.47989 1.86189 3.60628 0.587731C3.49559 0.530147 3.37253 0.5 3.24751 0.5ZM4.2826 3.65097C4.27592 3.05629 4.15256 2.44948 3.94374 1.88436C5.99603 3.11066 7.04347 5.20452 6.97183 6.84794L6.97141 6.86293C6.96644 7.2307 6.88508 7.59348 6.73243 7.92839C6.57977 8.26331 6.35912 8.56311 6.08432 8.80882C5.80953 9.05454 5.48656 9.24083 5.13579 9.35586C4.77554 9.47399 4.38915 9.52568 4.03082 9.49141C4.00443 9.48888 3.97788 9.48846 3.95142 9.49016C3.59896 9.51272 3.24924 9.45458 2.89036 9.33167C2.54454 9.21322 2.22573 9.02765 1.95232 8.78574C1.67892 8.54383 1.45633 8.25038 1.29733 7.92235C1.13913 7.59595 1.04699 7.24171 1.02614 6.87989C1.01335 6.47842 1.11159 6.08108 1.31025 5.73141C1.42704 5.52582 1.57591 5.34137 1.75036 5.18451C1.99673 5.56407 2.30196 5.9037 2.65566 6.1902C2.84973 6.34739 3.13012 6.33694 3.31194 6.16572C4.0255 5.4938 4.29287 4.56457 4.2826 3.65097Z" fill="#2D304D"/>
</svg>
