<svg width="23" height="17" viewBox="0 0 23 17" fill="none" xmlns="http://www.w3.org/2000/svg">
<path d="M16.9441 6.76582H15.7989C15.4589 5.51399 14.7563 4.37792 13.771 3.48671C12.7856 2.59549 11.5571 1.98486 10.2249 1.7242C8.89272 1.46354 7.51034 1.5633 6.23483 2.01216C4.95932 2.46101 3.84183 3.24095 3.00934 4.26336C2.17685 5.28577 1.66274 6.50965 1.52543 7.79592C1.38812 9.0822 1.63312 10.3793 2.23258 11.5398C2.83204 12.7004 3.76192 13.6778 4.91658 14.3611C6.07123 15.0443 7.40436 15.406 8.76446 15.4051H16.9441C18.1493 15.4051 19.3051 14.95 20.1573 14.1399C21.0095 13.3298 21.4883 12.2311 21.4883 11.0854C21.4883 9.9398 21.0095 8.84109 20.1573 8.03101C19.3051 7.22092 18.1493 6.76582 16.9441 6.76582Z" stroke="#F8F8F8" stroke-width="1.5" stroke-linecap="round" stroke-linejoin="round"/>
</svg>
