<svg width="14" height="15" viewBox="0 0 14 15" fill="none" xmlns="http://www.w3.org/2000/svg">
<path d="M2.58008 6.5L3.41008 13.12C3.43955 13.3639 3.55779 13.5884 3.74223 13.7507C3.92667 13.913 4.1644 14.0018 4.41008 14H9.64008C9.88576 14.0018 10.1235 13.913 10.3079 13.7507C10.4924 13.5884 10.6106 13.3639 10.6401 13.12L11.4601 6.5" stroke="#2D304D" stroke-width="1.5" stroke-linecap="round" stroke-linejoin="round"/>
<path d="M11.02 3.57011C10.8984 3.57203 10.7775 3.58882 10.66 3.62011C10.7514 3.40149 10.799 3.16706 10.8 2.93011C10.7818 2.40843 10.5603 1.91455 10.1829 1.55394C9.80545 1.19333 9.30199 0.994574 8.78002 1.00011C8.41821 1.00108 8.06344 1.10017 7.7535 1.28684C7.44356 1.47351 7.19007 1.74075 7.02002 2.06011C6.84997 1.74075 6.59647 1.47351 6.28654 1.28684C5.9766 1.10017 5.62183 1.00108 5.26002 1.00011C4.74149 0.999795 4.24311 1.20087 3.86999 1.56094C3.49687 1.921 3.27817 2.41191 3.26002 2.93011C3.26107 3.16706 3.30864 3.40149 3.40002 3.62011C3.27603 3.58716 3.14831 3.57035 3.02002 3.57011C2.62219 3.57011 2.24066 3.72815 1.95936 4.00945C1.67805 4.29076 1.52002 4.67229 1.52002 5.07011C1.52002 5.46794 1.67805 5.84947 1.95936 6.13077C2.24066 6.41208 2.62219 6.57011 3.02002 6.57011C3.24887 6.5705 3.47501 6.52054 3.68239 6.42376C3.88977 6.32698 4.07332 6.18576 4.22002 6.01011C4.32864 6.30427 4.52503 6.55795 4.78259 6.73682C5.04015 6.91568 5.34645 7.01108 5.66002 7.01011C5.93265 7.01578 6.20195 6.94942 6.44073 6.81774C6.67952 6.68606 6.87934 6.49371 7.02002 6.26011C7.15846 6.48598 7.35249 6.6726 7.58358 6.80215C7.81466 6.9317 8.0751 6.99985 8.34002 7.00011C8.65359 7.00108 8.95989 6.90568 9.21745 6.72682C9.47501 6.54795 9.6714 6.29427 9.78002 6.00011C9.92672 6.17576 10.1103 6.31698 10.3177 6.41376C10.525 6.51054 10.7512 6.5605 10.98 6.56011C11.3778 6.56011 11.7594 6.40208 12.0407 6.12077C12.322 5.83947 12.48 5.45794 12.48 5.06011C12.48 4.66229 12.322 4.28076 12.0407 3.99945C11.7594 3.71815 11.3778 3.56011 10.98 3.56011L11.02 3.57011Z" stroke="#2D304D" stroke-width="1.5" stroke-linecap="round" stroke-linejoin="round"/>
</svg>
