<svg width="15" height="13" viewBox="0 0 15 13" fill="none" xmlns="http://www.w3.org/2000/svg">
<path d="M7.5 2.5C9.22391 2.5 10.8772 3.18482 12.0962 4.40381C13.3152 5.62279 14 7.27609 14 9V9C14 9.26522 13.8946 9.51957 13.7071 9.70711C13.5196 9.89464 13.2652 10 13 10H2C1.73478 10 1.48043 9.89464 1.29289 9.70711C1.10536 9.51957 1 9.26522 1 9C1 7.27609 1.68482 5.62279 2.90381 4.40381C4.12279 3.18482 5.77609 2.5 7.5 2.5V2.5Z" stroke="#2D304D" stroke-width="1.5" stroke-linecap="round" stroke-linejoin="round"/>
<path d="M7.5 2.5V1" stroke="#2D304D" stroke-width="1.5" stroke-linecap="round" stroke-linejoin="round"/>
<path d="M1 12H14" stroke="#2D304D" stroke-width="1.5" stroke-linecap="round" stroke-linejoin="round"/>
</svg>
