<svg width="10" height="11" viewBox="0 0 10 11" fill="none" xmlns="http://www.w3.org/2000/svg">
<path d="M4.37924 4.49999C4.20785 4.27146 3.88365 4.22515 3.65512 4.39654C3.42659 4.56794 3.38028 4.89214 3.55167 5.12067L4.58616 6.49998C4.68384 6.63022 4.83714 6.70687 4.99994 6.70687H6.72408C7.00974 6.70687 7.24131 6.4753 7.24131 6.18964C7.24131 5.90398 7.00974 5.67241 6.72408 5.67241H5.25856L4.37924 4.49999Z" fill="#2D304D"/>
<path fill-rule="evenodd" clip-rule="evenodd" d="M3.96546 0.5C3.6798 0.5 3.44823 0.731571 3.44823 1.01723C3.44823 1.30289 3.6798 1.53446 3.96546 1.53446H4.48256V1.91005C2.34596 2.16564 0.689588 3.98422 0.689588 6.18966C0.689588 8.5702 2.61939 10.5 4.99993 10.5C7.38046 10.5 9.31027 8.5702 9.31027 6.18966C9.31027 3.98412 7.65376 2.16548 5.51702 1.91002V1.53446H6.03443C6.32008 1.53446 6.55166 1.30289 6.55166 1.01723C6.55166 0.731571 6.32008 0.5 6.03443 0.5H3.96546ZM1.72405 6.18966C1.72405 4.38044 3.19071 2.91378 4.99993 2.91378C6.80915 2.91378 8.27581 4.38044 8.27581 6.18966C8.27581 7.99888 6.80915 9.46554 4.99993 9.46554C3.19071 9.46554 1.72405 7.99888 1.72405 6.18966Z" fill="#2D304D"/>
<path d="M8.08242 1.68598C8.28441 1.48399 8.6119 1.48399 8.81389 1.68598L9.50354 2.37564C9.70554 2.57763 9.70554 2.90512 9.50354 3.10711C9.30155 3.3091 8.97406 3.3091 8.77207 3.10711L8.08242 2.41746C7.88043 2.21546 7.88043 1.88797 8.08242 1.68598Z" fill="#2D304D"/>
<path d="M1.91735 2.41746C2.11934 2.21546 2.11934 1.88797 1.91735 1.68598C1.71536 1.48399 1.38787 1.48399 1.18588 1.68598L0.49622 2.37564C0.294229 2.57763 0.294229 2.90512 0.49622 3.10711C0.69821 3.3091 1.0257 3.3091 1.22769 3.10711L1.91735 2.41746Z" fill="#2D304D"/>
</svg>
