<svg width="21" height="21" viewBox="0 0 21 21" fill="none" xmlns="http://www.w3.org/2000/svg">
<path fill-rule="evenodd" clip-rule="evenodd" d="M6.52917 3.96851L4.90834 5.28768C4.75185 5.44017 4.66414 5.64977 4.6654 5.86826C4.66666 6.08676 4.75677 6.29534 4.91501 6.44601L6.14667 7.94601L10.3383 13.0602C10.4109 13.1456 10.5086 13.206 10.6175 13.2327L12.7908 13.7327C13.0792 13.7446 13.3279 13.5319 13.3608 13.2452L13.2592 11.101C13.2516 10.9915 13.2083 10.8876 13.1358 10.8052L9.12501 5.91768L7.71251 4.19435C7.43807 3.82079 6.92189 3.72228 6.52917 3.96851Z" stroke="#2D304D" stroke-width="1.5" stroke-linecap="round" stroke-linejoin="round"/>
<path d="M16.3333 15.5761C16.7475 15.5761 17.0833 15.9118 17.0833 16.3261C17.0833 16.7403 16.7475 17.0761 16.3333 17.0761V15.5761ZM4.91658 17.0761C4.50237 17.0761 4.16658 16.7403 4.16658 16.3261C4.16658 15.9118 4.50237 15.5761 4.91658 15.5761V17.0761ZM8.42944 5.637C8.58447 5.2529 9.02153 5.0672 9.40564 5.22224C9.78974 5.37728 9.97544 5.81434 9.8204 6.19844L8.42944 5.637ZM5.98132 8.68012C5.57729 8.58885 5.32375 8.18732 5.41502 7.78329C5.5063 7.37926 5.90782 7.12572 6.31185 7.21699L5.98132 8.68012ZM16.3333 17.0761H4.91658V15.5761H16.3333V17.0761ZM9.8204 6.19844C9.62109 6.69223 9.21302 7.3945 8.60258 7.93735C7.97897 8.49189 7.07934 8.92817 5.98132 8.68012L6.31185 7.21699C6.79633 7.32644 7.2192 7.16022 7.6058 6.81644C8.00556 6.46095 8.29541 5.96905 8.42944 5.637L9.8204 6.19844Z" fill="#2D304D"/>
</svg>
