<svg width="8" height="9" viewBox="0 0 8 9" fill="none" xmlns="http://www.w3.org/2000/svg">
<path fill-rule="evenodd" clip-rule="evenodd" d="M6.04802 1.62837C6.65575 2.2074 6.99969 3.01015 6.99969 3.84956C6.99969 4.68897 6.65575 5.49173 6.04802 6.07075L3.74936 8.29195L1.4507 6.07075C0.842964 5.49173 0.499023 4.68897 0.499023 3.84956C0.499023 3.01015 0.842964 2.2074 1.4507 1.62837C2.73747 0.40122 4.76125 0.40122 6.04802 1.62837Z" stroke="#F8F8F8" stroke-linecap="round" stroke-linejoin="round"/>
<path fill-rule="evenodd" clip-rule="evenodd" d="M5.04964 3.65662C5.04493 3.99673 4.90529 4.32103 4.66145 4.55817C4.4176 4.7953 4.08953 4.92585 3.74943 4.92107C3.40932 4.92585 3.08125 4.7953 2.83741 4.55817C2.59357 4.32103 2.45393 3.99673 2.44922 3.65662C2.45932 2.94859 3.0414 2.38276 3.74943 2.39271C4.45746 2.38276 5.03954 2.94859 5.04964 3.65662V3.65662Z" stroke="#F8F8F8" stroke-linecap="round" stroke-linejoin="round"/>
</svg>
