<svg width="11" height="12" viewBox="0 0 11 12" fill="none" xmlns="http://www.w3.org/2000/svg">
<path d="M6.25008 5.08283C6.25008 5.49705 5.91429 5.83283 5.50008 5.83283C5.08587 5.83283 4.75008 5.49705 4.75008 5.08283H6.25008ZM4.75008 1.16675C4.75008 0.752534 5.08587 0.416748 5.50008 0.416748C5.91429 0.416748 6.25008 0.752534 6.25008 1.16675H4.75008ZM8.3729 4.01759C8.08711 3.71776 8.09848 3.24303 8.39831 2.95724C8.69814 2.67145 9.17288 2.68282 9.45867 2.98265L8.3729 4.01759ZM1.54149 2.98265C1.82728 2.68282 2.30202 2.67145 2.60185 2.95724C2.90168 3.24303 2.91306 3.71776 2.62727 4.01759L1.54149 2.98265ZM4.75008 5.08283V1.16675H6.25008V5.08283H4.75008ZM5.50008 10.4167C7.67968 10.4167 9.41675 8.69478 9.41675 6.60702H10.9167C10.9167 9.5558 8.47514 11.9167 5.50008 11.9167V10.4167ZM5.50008 11.9167C2.52502 11.9167 0.0834141 9.5558 0.0834141 6.60702H1.58341C1.58341 8.69478 3.32048 10.4167 5.50008 10.4167V11.9167ZM9.41675 6.60702C9.41675 5.60905 9.02304 4.69966 8.3729 4.01759L9.45867 2.98265C10.3608 3.92912 10.9167 5.20401 10.9167 6.60702H9.41675ZM0.0834141 6.60702C0.0834141 5.20401 0.639336 3.92912 1.54149 2.98265L2.62727 4.01759C1.97713 4.69966 1.58341 5.60905 1.58341 6.60702H0.0834141Z" fill="#2D304D"/>
</svg>
