<svg width="21" height="21" viewBox="0 0 21 21" fill="none" xmlns="http://www.w3.org/2000/svg">
<path d="M7.26465 15.968V17.6423" stroke="#F8F8F8" stroke-width="1.5" stroke-linecap="round" stroke-linejoin="round"/>
<path d="M7.26465 10.9453V12.6196" stroke="#F8F8F8" stroke-width="1.5" stroke-linecap="round" stroke-linejoin="round"/>
<path d="M13.9619 15.968V17.6423" stroke="#F8F8F8" stroke-width="1.5" stroke-linecap="round" stroke-linejoin="round"/>
<path d="M13.9619 10.9453V12.6196" stroke="#F8F8F8" stroke-width="1.5" stroke-linecap="round" stroke-linejoin="round"/>
<path d="M10.6133 17.6423V19.3166" stroke="#F8F8F8" stroke-width="1.5" stroke-linecap="round" stroke-linejoin="round"/>
<path d="M10.6133 12.6196V14.2939" stroke="#F8F8F8" stroke-width="1.5" stroke-linecap="round" stroke-linejoin="round"/>
<path d="M17.3103 13.9421C18.1903 13.5567 18.911 12.8803 19.3513 12.0264C19.7916 11.1725 19.9247 10.1931 19.7284 9.25269C19.5321 8.31223 19.0182 7.46795 18.273 6.86155C17.5278 6.25516 16.5968 5.92356 15.636 5.92243H14.5812C14.3159 4.89488 13.8101 3.94509 13.1056 3.15137C12.4012 2.35765 11.5181 1.74271 10.5293 1.35725C9.54055 0.971795 8.47431 0.826846 7.4185 0.934356C6.36269 1.04187 5.34755 1.39876 4.45675 1.97561C3.56595 2.55246 2.82499 3.33276 2.29496 4.25219C1.76492 5.17162 1.46098 6.20385 1.40819 7.26381C1.3554 8.32376 1.55527 9.38108 1.99133 10.3486C2.42739 11.3162 3.08714 12.1662 3.91622 12.8287" stroke="#F8F8F8" stroke-width="1.5" stroke-linecap="round" stroke-linejoin="round"/>
</svg>
