<svg width="16" height="16" viewBox="0 0 16 16" fill="none" xmlns="http://www.w3.org/2000/svg">
<path d="M9 7.3335V11.3335" stroke="#FF0101" stroke-width="1.5" stroke-linecap="round" stroke-linejoin="round"/>
<path d="M6.3335 7.3335V11.3335" stroke="#FF0101" stroke-width="1.5" stroke-linecap="round" stroke-linejoin="round"/>
<path d="M13 4.6665H2.33333" stroke="#FF0101" stroke-width="1.5" stroke-linecap="round" stroke-linejoin="round"/>
<path d="M11.667 4.6665V3.9165C12.0812 3.9165 12.417 4.25229 12.417 4.6665H11.667ZM3.66699 4.6665H2.91699C2.91699 4.25229 3.25278 3.9165 3.66699 3.9165V4.6665ZM4.41699 4.6665V10.9998H2.91699V4.6665H4.41699ZM6.66699 13.2498H8.66699V14.7498H6.66699V13.2498ZM10.917 10.9998V4.6665H12.417V10.9998H10.917ZM11.667 5.4165H7.66699V3.9165H11.667V5.4165ZM7.66699 5.4165H3.66699V3.9165H7.66699V5.4165ZM8.66699 13.2498C9.90963 13.2498 10.917 12.2425 10.917 10.9998H12.417C12.417 13.0709 10.7381 14.7498 8.66699 14.7498V13.2498ZM4.41699 10.9998C4.41699 12.2425 5.42435 13.2498 6.66699 13.2498V14.7498C4.59592 14.7498 2.91699 13.0709 2.91699 10.9998H4.41699Z" fill="#FF0101"/>
<path d="M9.66699 4C9.66699 2.89543 8.77156 2 7.66699 2V2C6.56242 2 5.66699 2.89543 5.66699 4V4.66667H9.66699V4Z" stroke="#FF0101" stroke-width="1.5" stroke-linecap="round" stroke-linejoin="round"/>
</svg>
