<svg width="10" height="17" viewBox="0 0 10 17" fill="none" xmlns="http://www.w3.org/2000/svg">
<path fill-rule="evenodd" clip-rule="evenodd" d="M9.0047 14.5441V3.02825C9.00772 2.58246 8.86893 2.15343 8.61888 1.83556C8.36883 1.51768 8.028 1.33699 7.67137 1.33325H2.33803C1.9814 1.33699 1.64057 1.51768 1.39052 1.83556C1.14046 2.15343 1.00168 2.58246 1.0047 3.02825V14.5441C0.973005 14.8766 1.10361 15.2005 1.33628 15.3665C1.56894 15.5324 1.85848 15.5082 2.07137 15.3049L4.6047 12.5708C4.83307 12.3131 5.18033 12.3131 5.4087 12.5708L7.93803 15.3058C8.15101 15.5092 8.44074 15.5334 8.67348 15.3672C8.90623 15.201 9.03671 14.8767 9.0047 14.5441Z" stroke="#F8F8F8" stroke-width="1.5" stroke-linecap="round" stroke-linejoin="round"/>
</svg>
