<svg width="7" height="10" viewBox="0 0 7 10" fill="none" xmlns="http://www.w3.org/2000/svg">
<path fill-rule="evenodd" clip-rule="evenodd" d="M6.46132 9.34045V1.19841C6.46345 0.883229 6.36533 0.579893 6.18853 0.355144C6.01174 0.130395 5.77076 0.00264531 5.51861 0H1.74779C1.49564 0.00264531 1.25466 0.130395 1.07786 0.355144C0.90107 0.579893 0.802947 0.883229 0.805081 1.19841V9.34045C0.782671 9.57554 0.875011 9.80456 1.03951 9.9219C1.20402 10.0392 1.40873 10.0221 1.55925 9.87838L3.35039 7.94524C3.51185 7.76308 3.75737 7.76308 3.91884 7.94524L5.70715 9.87897C5.85773 10.0228 6.06258 10.0399 6.22714 9.92241C6.39169 9.8049 6.48395 9.57564 6.46132 9.34045Z" fill="#EA1754"/>
</svg>
