<svg width="12" height="12" viewBox="0 0 12 12" fill="none" xmlns="http://www.w3.org/2000/svg">
<path d="M0.919168 4.41917L4.41917 0.919167C4.47292 0.866695 4.5363 0.8251 4.60583 0.796667C4.67816 0.767277 4.75528 0.751457 4.83333 0.75H9.5C9.96413 0.75 10.4092 0.934375 10.7374 1.26256C11.0656 1.59075 11.25 2.03587 11.25 2.5V9.5C11.25 9.96413 11.0656 10.4092 10.7374 10.7374C10.4092 11.0656 9.96413 11.25 9.5 11.25H2.5C2.03587 11.25 1.59075 11.0656 1.26256 10.7374C0.934375 10.4092 0.75 9.96413 0.75 9.5V4.83333C0.749557 4.75656 0.764271 4.68046 0.793301 4.60939C0.82233 4.53832 0.865104 4.47367 0.919168 4.41917ZM7.75 1.91667H5.41667V3.08333H7.75V1.91667ZM4.25 10.0833H7.75V8.33333C7.75 8.17862 7.68854 8.03025 7.57915 7.92085C7.46975 7.81146 7.32138 7.75 7.16667 7.75H4.83333C4.67862 7.75 4.53025 7.81146 4.42085 7.92085C4.31146 8.03025 4.25 8.17862 4.25 8.33333V10.0833ZM1.91667 9.5C1.91667 9.65471 1.97812 9.80308 2.08752 9.91248C2.19692 10.0219 2.34529 10.0833 2.5 10.0833H3.08333V8.33333C3.08333 7.8692 3.26771 7.42408 3.5959 7.0959C3.92409 6.76771 4.3692 6.58333 4.83333 6.58333H7.16667C7.6308 6.58333 8.07591 6.76771 8.4041 7.0959C8.73229 7.42408 8.91667 7.8692 8.91667 8.33333V10.0833H9.5C9.65471 10.0833 9.80308 10.0219 9.91248 9.91248C10.0219 9.80308 10.0833 9.65471 10.0833 9.5V2.5C10.0833 2.34529 10.0219 2.19692 9.91248 2.08752C9.80308 1.97812 9.65471 1.91667 9.5 1.91667H8.91667V3.66667C8.91667 3.82138 8.85521 3.96975 8.74581 4.07915C8.63642 4.18854 8.48804 4.25 8.33333 4.25H4.83333C4.67862 4.25 4.53025 4.18854 4.42085 4.07915C4.31146 3.96975 4.25 3.82138 4.25 3.66667V2.73917L1.91667 5.0725V9.5Z" fill="#F8F8F8"/>
</svg>
