<svg width="16" height="13" viewBox="0 0 16 13" fill="none" xmlns="http://www.w3.org/2000/svg">
<path d="M4.5 3V4.21154C4.5 4.56856 4.64183 4.91096 4.89428 5.16341C5.14673 5.41587 5.48913 5.55769 5.84615 5.55769C6.20318 5.55769 6.54558 5.41587 6.79803 5.16341C7.05048 4.91096 7.19231 4.56856 7.19231 4.21154V3" stroke="#2D304D" stroke-linecap="round" stroke-linejoin="round"/>
<path d="M5.84619 3V10" stroke="#2D304D" stroke-linecap="round" stroke-linejoin="round"/>
<path d="M11.5 10C10.5717 10 9.6815 9.63125 9.02513 8.97487C8.36875 8.3185 8 7.42826 8 6.5C8 5.57174 8.36875 4.6815 9.02513 4.02513C9.6815 3.36875 10.5717 3 11.5 3" stroke="#2D304D" stroke-linecap="round" stroke-linejoin="round"/>
<path d="M11.4998 8.38471C11 8.38471 10.5207 8.18615 10.1672 7.83272C9.81379 7.47928 9.61523 6.99993 9.61523 6.50009C9.61523 6.00026 9.81379 5.5209 10.1672 5.16747C10.5207 4.81404 11 4.61548 11.4998 4.61548" stroke="#2D304D" stroke-linecap="round" stroke-linejoin="round"/>
</svg>
