<svg width="13" height="15" viewBox="0 0 13 15" fill="none" xmlns="http://www.w3.org/2000/svg">
<path fill-rule="evenodd" clip-rule="evenodd" d="M3 2.4165C3.55228 2.4165 4 2.86422 4 3.4165C4 3.58845 3.9566 3.75026 3.88017 3.89158C3.87433 3.90067 3.86866 3.90992 3.86316 3.91934C3.85769 3.92872 3.85244 3.93817 3.84742 3.94768C3.67052 4.2293 3.35712 4.4165 3 4.4165C2.44772 4.4165 2 3.96879 2 3.4165C2 2.86422 2.44772 2.4165 3 2.4165ZM4.68235 5.26577C4.23822 5.67005 3.64789 5.9165 3 5.9165C1.61929 5.9165 0.5 4.79722 0.5 3.4165C0.5 2.03579 1.61929 0.916504 3 0.916504C4.38071 0.916504 5.5 2.03579 5.5 3.4165C5.5 3.60681 5.47874 3.79215 5.43845 3.97028L8.31772 5.65055C8.76184 5.24631 9.35214 4.99988 10 4.99988C11.3807 4.99988 12.5 6.11917 12.5 7.49988C12.5 8.88059 11.3807 9.99988 10 9.99988C9.35199 9.99988 8.76157 9.75333 8.31741 9.34892L5.43787 11.0269C5.47853 11.2058 5.5 11.392 5.5 11.5833C5.5 12.964 4.38071 14.0833 3 14.0833C1.61929 14.0833 0.5 12.964 0.5 11.5833C0.5 10.2025 1.61929 9.08325 3 9.08325C3.64694 9.08325 4.23649 9.32899 4.68039 9.7322L7.56147 8.05333C7.52124 7.8753 7.5 7.69007 7.5 7.49988C7.5 7.30954 7.52127 7.12417 7.56156 6.94602L4.68235 5.26577ZM9.15373 6.96689C9.14841 6.97702 9.14285 6.98707 9.13702 6.99705C9.13116 7.00709 9.12511 7.01695 9.11886 7.02661C9.04303 7.1675 9 7.32867 9 7.49988C9 7.67112 9.04304 7.8323 9.11889 7.97321C9.12521 7.98299 9.13134 7.99296 9.13726 8.00313C9.14299 8.01295 9.14846 8.02285 9.15369 8.03281C9.33079 8.31346 9.64362 8.49988 10 8.49988C10.5523 8.49988 11 8.05216 11 7.49988C11 6.94759 10.5523 6.49988 10 6.49988C9.64365 6.49988 9.33083 6.68627 9.15373 6.96689ZM3.8982 11.1432C3.88361 11.123 3.86987 11.102 3.85709 11.08C3.84491 11.0591 3.83387 11.0379 3.82392 11.0164C3.64357 10.7547 3.34181 10.5833 3 10.5833C2.44772 10.5833 2 11.031 2 11.5833C2 12.1355 2.44772 12.5833 3 12.5833C3.55229 12.5833 4 12.1355 4 11.5833C4 11.4253 3.96339 11.276 3.8982 11.1432Z" fill="#2D304D"/>
</svg>
