<svg width="26" height="26" viewBox="0 0 26 26" fill="none" xmlns="http://www.w3.org/2000/svg">
<path d="M10.5565 20.582C10.225 20.582 9.90707 20.4503 9.67265 20.2159C9.43823 19.9814 9.30654 19.6635 9.30654 19.332V16.832C9.30654 16.5005 9.43823 16.1825 9.67265 15.9481C9.90707 15.7137 10.225 15.582 10.5565 15.582C10.8881 15.582 11.206 15.7137 11.4404 15.9481C11.6748 16.1825 11.8065 16.5005 11.8065 16.832V19.332C11.8065 19.6635 11.6748 19.9814 11.4404 20.2159C11.206 20.4503 10.8881 20.582 10.5565 20.582ZM15.5565 20.582C15.225 20.582 14.9071 20.4503 14.6727 20.2159C14.4382 19.9814 14.3065 19.6635 14.3065 19.332V16.832C14.3065 16.5005 14.4382 16.1825 14.6727 15.9481C14.9071 15.7137 15.225 15.582 15.5565 15.582C15.8881 15.582 16.206 15.7137 16.4404 15.9481C16.6748 16.1825 16.8065 16.5005 16.8065 16.832V19.332C16.8065 19.6635 16.6748 19.9814 16.4404 20.2159C16.206 20.4503 15.8881 20.582 15.5565 20.582ZM4.30654 5.58197H6.03154L8.19404 1.26947C8.26011 1.11079 8.35821 0.967441 8.48219 0.848384C8.60618 0.729326 8.75339 0.63712 8.91462 0.577526C9.07585 0.517933 9.24764 0.492233 9.41925 0.502033C9.59086 0.511834 9.75861 0.556923 9.91201 0.634484C10.0654 0.712045 10.2012 0.820411 10.3108 0.952809C10.4204 1.08521 10.5015 1.23879 10.5491 1.40397C10.5967 1.56914 10.6097 1.74235 10.5873 1.91278C10.565 2.08321 10.5077 2.24719 10.419 2.39447L8.83154 5.58197H17.2815L15.694 2.39447C15.5727 2.10311 15.5661 1.77663 15.6755 1.48058C15.7849 1.18454 16.0023 0.940845 16.284 0.798431C16.5656 0.656017 16.8907 0.625425 17.194 0.712797C17.4973 0.80017 17.7563 0.999037 17.919 1.26947L20.0815 5.58197H21.8065C22.69 5.59541 23.5404 5.92041 24.2077 6.49964C24.875 7.07887 25.3163 7.87513 25.4538 8.74798C25.5913 9.62083 25.4162 10.5142 24.9593 11.2705C24.5024 12.0269 23.7931 12.5976 22.9565 12.882L22.0315 22.207C21.9383 23.1352 21.5024 23.9953 20.8089 24.6194C20.1155 25.2434 19.2144 25.5866 18.2815 25.582H7.80654C6.87366 25.5866 5.97254 25.2434 5.27913 24.6194C4.58572 23.9953 4.14981 23.1352 4.05654 22.207L3.13154 12.882C2.29312 12.5967 1.58272 12.0239 1.12616 11.2651C0.669594 10.5062 0.496336 9.61026 0.637072 8.7359C0.777807 7.86154 1.22346 7.06521 1.89508 6.48794C2.5667 5.91068 3.42096 5.58974 4.30654 5.58197ZM6.56904 21.957C6.60013 22.2664 6.74543 22.5531 6.97657 22.7611C7.2077 22.9691 7.50808 23.0835 7.81904 23.082H18.294C18.605 23.0835 18.9054 22.9691 19.1365 22.7611C19.3676 22.5531 19.5129 22.2664 19.544 21.957L20.4315 13.082H5.68154L6.56904 21.957ZM4.30654 10.582H21.8065C22.1381 10.582 22.456 10.4503 22.6904 10.2159C22.9248 9.98144 23.0565 9.66349 23.0565 9.33197C23.0565 9.00045 22.9248 8.68251 22.6904 8.44809C22.456 8.21367 22.1381 8.08197 21.8065 8.08197H4.30654C3.97502 8.08197 3.65707 8.21367 3.42265 8.44809C3.18823 8.68251 3.05654 9.00045 3.05654 9.33197C3.05654 9.66349 3.18823 9.98144 3.42265 10.2159C3.65707 10.4503 3.97502 10.582 4.30654 10.582Z" fill="#F8F8F8"/>
</svg>
