<svg width="24" height="24" viewBox="0 0 24 24" fill="none" xmlns="http://www.w3.org/2000/svg">
<path d="M19.8931 19.8313L19.8931 19.8313C19.7622 19.9662 19.5874 20.0348 19.4141 20.0348C19.2466 20.0348 19.0809 19.9718 18.9519 19.8464L19.8931 19.8313ZM19.8931 19.8313C20.1498 19.5666 20.1423 19.144 19.878 18.8887L19.8931 19.8313ZM17.4392 5.61833L17.4393 5.61817L18.9515 4.15396C18.9515 4.15391 18.9516 4.15385 18.9516 4.1538C19.2144 3.8965 19.6369 3.90254 19.8934 4.16898L19.8214 4.23834L19.8934 4.16899C20.148 4.43343 20.1424 4.85412 19.8782 5.11111L19.878 5.11127L18.3656 6.57575L17.4392 5.61833ZM17.4392 5.61833C17.1749 5.87532 17.1694 6.296 17.4239 6.56045M17.4392 5.61833L17.4239 6.56045M17.4242 17.4393C17.6793 17.1729 18.0997 17.1658 18.3654 17.4241L17.4242 17.4393ZM17.4242 17.4393C17.1675 17.7039 17.175 18.1266 17.4393 18.3818L17.4242 17.4393ZM17.4239 6.56045C17.5535 6.69579 17.7285 6.76426 17.9016 6.76426M17.4239 6.56045L17.9016 6.76426M17.9016 6.76426C18.0688 6.76426 18.2362 6.70142 18.3654 6.57589L17.9016 6.76426ZM17.4394 18.3819L18.9517 19.8463L17.4394 18.3819ZM4.17032 5.11111L4.17037 5.11116L5.67806 6.57575C5.80729 6.70137 5.97479 6.76426 6.14206 6.76426C6.31532 6.76426 6.49014 6.69564 6.62105 6.56074L6.62133 6.56045C6.87589 6.29601 6.8703 5.87532 6.60608 5.61833L6.606 5.61824L5.09676 4.15371C5.09674 4.15369 5.09672 4.15368 5.09671 4.15366C4.83198 3.89622 4.40988 3.90619 4.15533 4.16873C3.90029 4.43176 3.90625 4.85426 4.17032 5.11111ZM4.15507 19.8326L4.15534 19.8329C4.28479 19.9664 4.45969 20.0348 4.63273 20.0348C4.79991 20.0348 4.96712 19.972 5.09618 19.8485L5.09667 19.848L6.606 18.3834L6.60608 18.3833C6.8703 18.1263 6.87589 17.7056 6.62133 17.4412L6.54929 17.5105L6.62132 17.4412C6.36498 17.1749 5.9409 17.1684 5.67948 17.4261C5.67936 17.4262 5.67925 17.4263 5.67913 17.4264L4.17041 18.8904L4.17032 18.8905C3.90611 19.1475 3.90052 19.5682 4.15507 19.8326ZM6.0259 11.7702C6.0259 15.0905 8.7056 17.7918 12 17.7918C15.3195 17.7918 18.0194 15.0912 18.0194 11.7702C18.0194 8.47589 15.3188 5.79716 12 5.79716C8.70636 5.79716 6.0259 8.4766 6.0259 11.7702ZM7.35709 11.7702C7.35709 9.21181 9.43891 7.13001 12 7.13001C14.5846 7.13001 16.6865 9.21269 16.6865 11.7702C16.6865 14.3545 14.5837 16.4573 12 16.4573C9.43984 16.4573 7.35709 14.3554 7.35709 11.7702ZM11.3344 3.67191C11.3344 4.03935 11.6327 4.33834 12 4.33834C12.3673 4.33834 12.6656 4.03935 12.6656 3.67191V1.56643C12.6656 1.19899 12.3673 0.9 12 0.9C11.6327 0.9 11.3344 1.19899 11.3344 1.56643V3.67191ZM11.3344 22.4336C11.3344 22.801 11.6327 23.1 12 23.1C12.3671 23.1 12.6656 22.8028 12.6656 22.4336V20.3281C12.6656 19.9607 12.3673 19.6617 12 19.6617C11.6327 19.6617 11.3344 19.9607 11.3344 20.3281V22.4336ZM20.374 12.6664H22.4344C22.8017 12.6664 23.1 12.3674 23.1 12C23.1 11.6326 22.8017 11.3336 22.4344 11.3336H20.374C20.0068 11.3336 19.7084 11.6326 19.7084 12C19.7084 12.3674 20.0068 12.6664 20.374 12.6664ZM1.56559 12.6664H3.67122C4.03847 12.6664 4.33682 12.3674 4.33682 12C4.33682 11.6326 4.03847 11.3336 3.67122 11.3336H1.56559C1.19834 11.3336 0.9 11.6326 0.9 12C0.9 12.3674 1.19834 12.6664 1.56559 12.6664ZM19.8779 18.8886L18.3656 17.4243L19.8779 18.8886Z" fill="#F8F8F8" stroke="#F8F8F8" stroke-width="0.2"/>
</svg>
