<svg id="UI_component_Weather_Images_WeatherStack_small" data-name="UI/component/Weather/Images/WeatherStack/small" xmlns="http://www.w3.org/2000/svg" width="48" height="48" viewBox="0 0 48 48">
  <g id="img_cloudyDay" data-name="img/cloudyDay">
    <g id="Rectangle_1156" data-name="Rectangle 1156" fill="none" stroke="#707070" stroke-width="1" opacity="0">
      <rect width="48" height="48" stroke="none"/>
      <rect x="0.5" y="0.5" width="47" height="47" fill="none"/>
    </g>
    <g id="Component_70_2" data-name="Component 70 – 2" transform="translate(3.018 8.039)">
      <path id="Path_19691" data-name="Path 19691" d="M62.577,142.48a6.87,6.87,0,0,1-2.031,4.89,6.941,6.941,0,0,1-4.9,2.025H26.637a6.006,6.006,0,1,1,2.94-11.246,3.666,3.666,0,0,1,6.381-3.445,9.221,9.221,0,0,1,8.578-8.554c.209-.019.417-.025.632-.025a9.237,9.237,0,0,1,9.247,9.222c0,.116-.013.226-.019.343a6.914,6.914,0,0,1,8.18,6.792Z" transform="translate(-20.612 -126.124)" fill="#4a519f"/>
      <path id="Path_19692" data-name="Path 19692" d="M77.92,142.48a6.969,6.969,0,0,1-1.975,4.89,6.654,6.654,0,0,1-4.766,2.025h-10.8V126.149c.2-.019.405-.025.614-.025a9.11,9.11,0,0,1,8.989,9.222c0,.116-.012.226-.018.343a6.578,6.578,0,0,1,1.211-.117A6.829,6.829,0,0,1,77.92,142.48Z" transform="translate(-35.956 -126.124)" fill="#686dac"/>
      <path id="Path_19693" data-name="Path 19693" d="M67.779,136.685H66.9a5.961,5.961,0,0,0-5.954-5.954c-.186,0-.371.009-.553.026l-.08-.874c.208-.019.419-.029.632-.029A6.839,6.839,0,0,1,67.779,136.685Z" transform="translate(-36.282 -127.673)" fill="#fff"/>
    </g>
  </g>
</svg>
