<svg id="UI_component_Weather_Images_WeatherStack_small" data-name="UI/component/Weather/Images/WeatherStack/small" xmlns="http://www.w3.org/2000/svg" width="48" height="48" viewBox="0 0 48 48">
  <g id="img_snowyDay" data-name="img/snowyDay">
    <g id="Rectangle_1159" data-name="Rectangle 1159" fill="none" stroke="#707070" stroke-width="1" opacity="0">
      <rect width="48" height="48" stroke="none"/>
      <rect x="0.5" y="0.5" width="47" height="47" fill="none"/>
    </g>
    <g id="Component_70_7" data-name="Component 70 – 7" transform="translate(3.018 8.039)">
      <path id="Path_19691" data-name="Path 19691" d="M62.577,142.48a6.87,6.87,0,0,1-2.031,4.89,6.941,6.941,0,0,1-4.9,2.025H26.637a6.006,6.006,0,1,1,2.94-11.246,3.666,3.666,0,0,1,6.381-3.445,9.221,9.221,0,0,1,8.578-8.554c.209-.019.417-.025.632-.025a9.237,9.237,0,0,1,9.247,9.222c0,.116-.013.226-.019.343a6.914,6.914,0,0,1,8.18,6.792Z" transform="translate(-20.612 -126.124)" fill="#4a519f"/>
      <path id="Path_19692" data-name="Path 19692" d="M77.92,142.48a6.969,6.969,0,0,1-1.975,4.89,6.654,6.654,0,0,1-4.766,2.025h-10.8V126.149c.2-.019.405-.025.614-.025a9.11,9.11,0,0,1,8.989,9.222c0,.116-.012.226-.018.343a6.578,6.578,0,0,1,1.211-.117A6.829,6.829,0,0,1,77.92,142.48Z" transform="translate(-35.956 -126.124)" fill="#686dac"/>
      <path id="Path_19693" data-name="Path 19693" d="M67.779,136.685H66.9a5.961,5.961,0,0,0-5.954-5.954c-.186,0-.371.009-.553.026l-.08-.874c.208-.019.419-.029.632-.029A6.839,6.839,0,0,1,67.779,136.685Z" transform="translate(-36.282 -127.673)" fill="#fff"/>
    </g>
    <g id="image_snow" data-name="image/snow" transform="translate(7.92 34.481)">
      <path id="Path_19674" data-name="Path 19674" d="M263.742,174.952a.412.412,0,0,1-.412-.412V168.5a.412.412,0,0,1,.825,0v6.042A.412.412,0,0,1,263.742,174.952Z" transform="translate(-260.308 -168.086)" fill="#d4d5dd"/>
      <path id="Path_19675" data-name="Path 19675" d="M264.065,174.629h-6.043a.412.412,0,1,1,0-.824h6.043a.412.412,0,1,1,0,.824Z" transform="translate(-257.609 -170.784)" fill="#d4d5dd"/>
      <path id="Path_19676" data-name="Path 19676" d="M263.971,174.858a.413.413,0,0,1-.292-.12l-4.273-4.274a.412.412,0,1,1,.583-.583l4.274,4.274a.412.412,0,0,1-.292.7Z" transform="translate(-258.4 -168.876)" fill="#d4d5dd"/>
      <path id="Path_19677" data-name="Path 19677" d="M259.7,174.858a.412.412,0,0,1-.291-.7l4.273-4.274a.412.412,0,1,1,.583.583l-4.274,4.274A.411.411,0,0,1,259.7,174.858Z" transform="translate(-258.4 -168.876)" fill="#d4d5dd"/>
    </g>
    <g id="image_snow-2" data-name="image/snow" transform="translate(20.566 33.095)">
      <path id="Path_19674-2" data-name="Path 19674" d="M263.742,174.952a.412.412,0,0,1-.412-.412V168.5a.412.412,0,0,1,.825,0v6.042A.412.412,0,0,1,263.742,174.952Z" transform="translate(-260.308 -168.086)" fill="#d4d5dd"/>
      <path id="Path_19675-2" data-name="Path 19675" d="M264.065,174.629h-6.043a.412.412,0,1,1,0-.824h6.043a.412.412,0,1,1,0,.824Z" transform="translate(-257.609 -170.784)" fill="#d4d5dd"/>
      <path id="Path_19676-2" data-name="Path 19676" d="M263.971,174.858a.413.413,0,0,1-.292-.12l-4.273-4.274a.412.412,0,1,1,.583-.583l4.274,4.274a.412.412,0,0,1-.292.7Z" transform="translate(-258.4 -168.876)" fill="#d4d5dd"/>
      <path id="Path_19677-2" data-name="Path 19677" d="M259.7,174.858a.412.412,0,0,1-.291-.7l4.273-4.274a.412.412,0,1,1,.583.583l-4.274,4.274A.411.411,0,0,1,259.7,174.858Z" transform="translate(-258.4 -168.876)" fill="#d4d5dd"/>
    </g>
    <g id="image_snow-3" data-name="image/snow" transform="translate(35.132 34.648)">
      <path id="Path_19674-3" data-name="Path 19674" d="M263.742,174.952a.412.412,0,0,1-.412-.412V168.5a.412.412,0,0,1,.825,0v6.042A.412.412,0,0,1,263.742,174.952Z" transform="translate(-260.308 -168.086)" fill="#d4d5dd"/>
      <path id="Path_19675-3" data-name="Path 19675" d="M264.065,174.629h-6.043a.412.412,0,1,1,0-.824h6.043a.412.412,0,1,1,0,.824Z" transform="translate(-257.609 -170.784)" fill="#d4d5dd"/>
      <path id="Path_19676-3" data-name="Path 19676" d="M263.971,174.858a.413.413,0,0,1-.292-.12l-4.273-4.274a.412.412,0,1,1,.583-.583l4.274,4.274a.412.412,0,0,1-.292.7Z" transform="translate(-258.4 -168.876)" fill="#d4d5dd"/>
      <path id="Path_19677-3" data-name="Path 19677" d="M259.7,174.858a.412.412,0,0,1-.291-.7l4.273-4.274a.412.412,0,1,1,.583.583l-4.274,4.274A.411.411,0,0,1,259.7,174.858Z" transform="translate(-258.4 -168.876)" fill="#d4d5dd"/>
    </g>
  </g>
</svg>
