<svg id="UI_component_Weather_Images_WeatherStack_small" data-name="UI/component/Weather/Images/WeatherStack/small" xmlns="http://www.w3.org/2000/svg" width="48" height="48" viewBox="0 0 48 48">
  <g id="img_thunderDay" data-name="img/thunderDay">
    <g id="Rectangle_1157" data-name="Rectangle 1157" fill="none" stroke="#707070" stroke-width="1" opacity="0">
      <rect width="48" height="48" stroke="none"/>
      <rect x="0.5" y="0.5" width="47" height="47" fill="none"/>
    </g>
    <g id="Component_70_6" data-name="Component 70 – 6" transform="translate(3 8.039)">
      <path id="Path_19691" data-name="Path 19691" d="M62.577,142.48a6.87,6.87,0,0,1-2.031,4.89,6.941,6.941,0,0,1-4.9,2.025H26.637a6.006,6.006,0,1,1,2.94-11.246,3.666,3.666,0,0,1,6.381-3.445,9.221,9.221,0,0,1,8.578-8.554c.209-.019.417-.025.632-.025a9.237,9.237,0,0,1,9.247,9.222c0,.116-.013.226-.019.343a6.914,6.914,0,0,1,8.18,6.792Z" transform="translate(-20.612 -126.124)" fill="#4a519f"/>
      <path id="Path_19692" data-name="Path 19692" d="M77.92,142.48a6.969,6.969,0,0,1-1.975,4.89,6.654,6.654,0,0,1-4.766,2.025h-10.8V126.149c.2-.019.405-.025.614-.025a9.11,9.11,0,0,1,8.989,9.222c0,.116-.012.226-.018.343a6.578,6.578,0,0,1,1.211-.117A6.829,6.829,0,0,1,77.92,142.48Z" transform="translate(-35.956 -126.124)" fill="#686dac"/>
      <path id="Path_19693" data-name="Path 19693" d="M67.779,136.685H66.9a5.961,5.961,0,0,0-5.954-5.954c-.186,0-.371.009-.553.026l-.08-.874c.208-.019.419-.029.632-.029A6.839,6.839,0,0,1,67.779,136.685Z" transform="translate(-36.282 -127.673)" fill="#fff"/>
    </g>
    <g id="image_Bigrain" data-name="image/Bigrain" transform="translate(14.97 31.309)">
      <path id="Path_19694" data-name="Path 19694" d="M185.221,73.519a4.506,4.506,0,0,1-9.013,0c0-2.492,4.506-8.864,4.506-8.864S185.221,71.026,185.221,73.519Z" transform="translate(-176.208 -64.655)" fill="#b5b7cf"/>
      <path id="Path_19695" data-name="Path 19695" d="M187.964,73.519a4.5,4.5,0,0,1-4.506,4.5V64.655S187.964,71.026,187.964,73.519Z" transform="translate(-178.952 -64.655)" fill="#d4d5dd"/>
      <path id="Path_19696" data-name="Path 19696" d="M183.458,82.172V81.55a2.641,2.641,0,0,0,2.642-2.635h.622A3.263,3.263,0,0,1,183.458,82.172Z" transform="translate(-178.952 -70.051)" fill="#fff"/>
    </g>
    <g id="image_smallrain" data-name="image/smallrain" transform="translate(7.97 31.309)">
      <path id="Path_19697" data-name="Path 19697" d="M169.069,69.062a2.227,2.227,0,0,1-4.455,0c0-1.232,2.227-4.381,2.227-4.381S169.069,67.83,169.069,69.062Z" transform="translate(-164.614 -64.681)" fill="#d4d5dd"/>
      <path id="Path_19698" data-name="Path 19698" d="M170.425,69.062a2.226,2.226,0,0,1-2.228,2.224V64.681S170.425,67.83,170.425,69.062Z" transform="translate(-165.97 -64.681)" fill="#b5b7cf"/>
    </g>
    <g id="image_smalllighting" data-name="image/smalllighting" transform="translate(38.528 21.813)">
      <path id="Path_19699" data-name="Path 19699" d="M74.585,347.8l1.956-5.75-4.514,7.084h3.317l-1.956,5.75c4.319-6.782,3.527-5.539,4.514-7.084Z" transform="translate(-72.027 -342.048)" fill="#ffe230"/>
    </g>
    <g id="image_biglighting" data-name="image/biglighting" transform="translate(25.528 21.813)">
      <path id="Path_19682" data-name="Path 19682" d="M57,353.49l3.484-10.242-8.04,12.617h5.908l-3.484,10.242c7.694-12.08,6.282-9.865,8.04-12.617Z" transform="translate(-52.444 -343.248)" fill="#ec008c"/>
      <path id="Path_19683" data-name="Path 19683" d="M62.143,343.248l-5.566,11.43h5.566l-5.617,11.43,8.04-12.617H58.659Z" transform="translate(-54.102 -343.248)" fill="#e6b7d3"/>
    </g>
  </g>
</svg>
