<svg id="UI_component_Weather_Images_WeatherStack_Large" data-name="UI/component/Weather/Images/WeatherStack/Large" xmlns="http://www.w3.org/2000/svg" width="100" height="100" viewBox="0 0 100 100">
  <g id="img100cloudy_sunnyDay" data-name="img100cloudy/sunnyDay" opacity="0">
    <g id="Rectangle_1156" data-name="Rectangle 1156" fill="none" stroke="#707070" stroke-width="1" opacity="0">
      <rect width="100" height="100" stroke="none"/>
      <rect x="0.5" y="0.5" width="99" height="99" fill="none"/>
    </g>
    <g id="Component_70_2" data-name="Component 70 – 2" transform="translate(6.287 16.748)">
      <path id="Path_19691" data-name="Path 19691" d="M108.038,160.2a14.311,14.311,0,0,1-4.232,10.187A14.46,14.46,0,0,1,93.592,174.6H33.165a12.512,12.512,0,1,1,6.125-23.43A7.637,7.637,0,0,1,52.584,144a19.211,19.211,0,0,1,17.871-17.82c.435-.039.868-.052,1.316-.052a19.243,19.243,0,0,1,19.265,19.212c0,.242-.026.47-.039.714A14.4,14.4,0,0,1,108.038,160.2Z" transform="translate(-20.612 -126.124)" fill="#4a519f"/>
      <path id="Path_19692" data-name="Path 19692" d="M96.919,160.2A14.519,14.519,0,0,1,92.8,170.385a13.862,13.862,0,0,1-9.929,4.218H60.383V126.176c.423-.039.844-.052,1.279-.052A18.979,18.979,0,0,1,80.39,145.336c0,.242-.026.47-.038.714a13.705,13.705,0,0,1,2.523-.244A14.227,14.227,0,0,1,96.919,160.2Z" transform="translate(-9.493 -126.124)" fill="#686dac"/>
      <path id="Path_19693" data-name="Path 19693" d="M75.864,144.085H74.037a12.418,12.418,0,0,0-12.4-12.4c-.387,0-.772.019-1.151.054l-.166-1.82c.434-.039.874-.061,1.317-.061A14.247,14.247,0,0,1,75.864,144.085Z" transform="translate(-10.247 -125.31)" fill="#fff"/>
    </g>
  </g>
  <g id="img100px_sunnyDay" data-name="img100px/sunnyDay">
    <g id="Rectangle_1152" data-name="Rectangle 1152" fill="none" stroke="#707070" stroke-width="1" opacity="0">
      <rect width="100" height="100" stroke="none"/>
      <rect x="0.5" y="0.5" width="99" height="99" fill="none"/>
    </g>
    <g id="Component_76_1" data-name="Component 76 – 1" transform="translate(8.457 7.055)">
      <path id="sun" d="M72.94,70.934c.345-12.326-10.176-23.3-22.513-23.465a22.9,22.9,0,0,0-1.051,45.787c12.42.549,23.2-9.673,23.564-22.322" transform="translate(-27.264 -47.467)" fill="#ec008c"/>
    </g>
    <g id="Component_70_4" data-name="Component 70 – 4" transform="translate(12.573 20.914)">
      <path id="Path_19691-2" data-name="Path 19691" d="M99.705,157.27a13.149,13.149,0,0,1-3.829,9.311,13.015,13.015,0,0,1-9.24,3.855H31.968a11.437,11.437,0,0,1,0-22.873,11.174,11.174,0,0,1,5.541,1.456,7.09,7.09,0,0,1-.429-2.387,6.907,6.907,0,0,1,12.456-4.173A17.47,17.47,0,0,1,65.7,126.172c.393-.035.786-.048,1.19-.048a17.5,17.5,0,0,1,17.429,17.561c0,.222-.024.43-.035.652a12.976,12.976,0,0,1,2.348-.223A13.118,13.118,0,0,1,99.705,157.27Z" transform="translate(-20.612 -126.124)" fill="#4a519f"/>
      <path id="Path_19692-2" data-name="Path 19692" d="M93.437,157.27a13.343,13.343,0,0,1-3.722,9.311,12.479,12.479,0,0,1-8.983,3.855H60.383V126.172c.382-.035.764-.048,1.157-.048,9.354,0,16.943,7.866,16.943,17.561,0,.222-.023.43-.034.652a12.274,12.274,0,0,1,2.283-.223A12.941,12.941,0,0,1,93.437,157.27Z" transform="translate(-14.343 -126.124)" fill="#686dac"/>
      <path id="Path_19693-2" data-name="Path 19693" d="M74.382,142.862H72.729a11.293,11.293,0,0,0-11.222-11.338c-.35,0-.7.018-1.042.049l-.15-1.664c.392-.036.79-.056,1.191-.056A12.957,12.957,0,0,1,74.382,142.862Z" transform="translate(-15.019 -125.7)" fill="#fff"/>
    </g>
  </g>
  <g id="img100px_hotDay" data-name="img100px/hotDay" opacity="0">
    <g id="Rectangle_1160" data-name="Rectangle 1160" fill="none" stroke="#707070" stroke-width="1" opacity="0">
      <rect width="100" height="100" stroke="none"/>
      <rect x="0.5" y="0.5" width="99" height="99" fill="none"/>
    </g>
    <g id="Component_76_2" data-name="Component 76 – 2" transform="translate(19.677 16.748)">
      <path id="sun-2" data-name="sun" d="M93.74,81.62c.5-17.939-14.81-33.909-32.765-34.15C43.325,47.219,28,61.789,27.292,79.476c-.754,18.1,13.881,33.822,32.153,34.631,18.075.8,33.77-14.078,34.294-32.487" transform="translate(-27.264 -47.467)" fill="#ec008c"/>
    </g>
  </g>
  <g id="img100px_rainyDay" data-name="img100px/rainyDay" opacity="0">
    <g id="Rectangle_1158" data-name="Rectangle 1158" fill="none" stroke="#707070" stroke-width="1" opacity="0">
      <rect width="100" height="100" stroke="none"/>
      <rect x="0.5" y="0.5" width="99" height="99" fill="none"/>
    </g>
    <g id="Component_70_5" data-name="Component 70 – 5" transform="translate(6.287 16.748)">
      <path id="Path_19691-3" data-name="Path 19691" d="M108.038,160.2a14.311,14.311,0,0,1-4.232,10.187A14.46,14.46,0,0,1,93.592,174.6H33.165a12.512,12.512,0,1,1,6.125-23.43A7.637,7.637,0,0,1,52.584,144a19.211,19.211,0,0,1,17.871-17.82c.435-.039.868-.052,1.316-.052a19.243,19.243,0,0,1,19.265,19.212c0,.242-.026.47-.039.714A14.4,14.4,0,0,1,108.038,160.2Z" transform="translate(-20.612 -126.124)" fill="#4a519f"/>
      <path id="Path_19692-3" data-name="Path 19692" d="M96.919,160.2A14.519,14.519,0,0,1,92.8,170.385a13.862,13.862,0,0,1-9.929,4.218H60.383V126.176c.423-.039.844-.052,1.279-.052A18.979,18.979,0,0,1,80.39,145.336c0,.242-.026.47-.038.714a13.705,13.705,0,0,1,2.523-.244A14.227,14.227,0,0,1,96.919,160.2Z" transform="translate(-9.493 -126.124)" fill="#686dac"/>
      <path id="Path_19693-3" data-name="Path 19693" d="M75.864,144.085H74.037a12.418,12.418,0,0,0-12.4-12.4c-.387,0-.772.019-1.151.054l-.166-1.82c.434-.039.874-.061,1.317-.061A14.247,14.247,0,0,1,75.864,144.085Z" transform="translate(-10.247 -125.31)" fill="#fff"/>
    </g>
    <g id="image_Bigrain" data-name="image/Bigrain" transform="translate(49.974 65.227)">
      <path id="Path_19694" data-name="Path 19694" d="M194.985,83.121a9.388,9.388,0,0,1-18.777,0c0-5.193,9.388-18.466,9.388-18.466S194.985,77.928,194.985,83.121Z" transform="translate(-176.208 -64.655)" fill="#b5b7cf"/>
      <path id="Path_19695" data-name="Path 19695" d="M192.846,83.121a9.384,9.384,0,0,1-9.388,9.375V64.655S192.846,77.928,192.846,83.121Z" transform="translate(-174.07 -64.655)" fill="#d4d5dd"/>
      <path id="Path_19696" data-name="Path 19696" d="M183.458,85.7V84.406a5.5,5.5,0,0,0,5.5-5.491h1.295A6.8,6.8,0,0,1,183.458,85.7Z" transform="translate(-174.07 -60.449)" fill="#fff"/>
    </g>
    <g id="image_smallrain" data-name="image/smallrain" transform="translate(35.391 65.227)">
      <path id="Path_19697" data-name="Path 19697" d="M173.895,73.809a4.64,4.64,0,0,1-9.281,0c0-2.567,4.64-9.128,4.64-9.128S173.895,71.242,173.895,73.809Z" transform="translate(-164.614 -64.681)" fill="#d4d5dd"/>
      <path id="Path_19698" data-name="Path 19698" d="M172.838,73.809a4.638,4.638,0,0,1-4.641,4.633V64.681S172.838,71.242,172.838,73.809Z" transform="translate(-163.557 -64.681)" fill="#b5b7cf"/>
    </g>
  </g>
  <g id="img100px_thunderDay" data-name="img100px/thunderDay" opacity="0">
    <g id="Rectangle_1157" data-name="Rectangle 1157" fill="none" stroke="#707070" stroke-width="1" opacity="0">
      <rect width="100" height="100" stroke="none"/>
      <rect x="0.5" y="0.5" width="99" height="99" fill="none"/>
    </g>
    <g id="Component_70_6" data-name="Component 70 – 6" transform="translate(6.25 16.748)">
      <path id="Path_19691-4" data-name="Path 19691" d="M108.038,160.2a14.311,14.311,0,0,1-4.232,10.187A14.46,14.46,0,0,1,93.592,174.6H33.165a12.512,12.512,0,1,1,6.125-23.43A7.637,7.637,0,0,1,52.584,144a19.211,19.211,0,0,1,17.871-17.82c.435-.039.868-.052,1.316-.052a19.243,19.243,0,0,1,19.265,19.212c0,.242-.026.47-.039.714A14.4,14.4,0,0,1,108.038,160.2Z" transform="translate(-20.612 -126.124)" fill="#4a519f"/>
      <path id="Path_19692-4" data-name="Path 19692" d="M96.919,160.2A14.519,14.519,0,0,1,92.8,170.385a13.862,13.862,0,0,1-9.929,4.218H60.383V126.176c.423-.039.844-.052,1.279-.052A18.979,18.979,0,0,1,80.39,145.336c0,.242-.026.47-.038.714a13.705,13.705,0,0,1,2.523-.244A14.227,14.227,0,0,1,96.919,160.2Z" transform="translate(-9.493 -126.124)" fill="#686dac"/>
      <path id="Path_19693-4" data-name="Path 19693" d="M75.864,144.085H74.037a12.418,12.418,0,0,0-12.4-12.4c-.387,0-.772.019-1.151.054l-.166-1.82c.434-.039.874-.061,1.317-.061A14.247,14.247,0,0,1,75.864,144.085Z" transform="translate(-10.247 -125.31)" fill="#fff"/>
    </g>
    <g id="image_Bigrain-2" data-name="image/Bigrain" transform="translate(31.187 65.227)">
      <path id="Path_19694-2" data-name="Path 19694" d="M194.985,83.121a9.388,9.388,0,0,1-18.777,0c0-5.193,9.388-18.466,9.388-18.466S194.985,77.928,194.985,83.121Z" transform="translate(-176.208 -64.655)" fill="#b5b7cf"/>
      <path id="Path_19695-2" data-name="Path 19695" d="M192.846,83.121a9.384,9.384,0,0,1-9.388,9.375V64.655S192.846,77.928,192.846,83.121Z" transform="translate(-174.07 -64.655)" fill="#d4d5dd"/>
      <path id="Path_19696-2" data-name="Path 19696" d="M183.458,85.7V84.406a5.5,5.5,0,0,0,5.5-5.491h1.295A6.8,6.8,0,0,1,183.458,85.7Z" transform="translate(-174.07 -60.449)" fill="#fff"/>
    </g>
    <g id="image_smallrain-2" data-name="image/smallrain" transform="translate(16.604 65.227)">
      <path id="Path_19697-2" data-name="Path 19697" d="M173.895,73.809a4.64,4.64,0,0,1-9.281,0c0-2.567,4.64-9.128,4.64-9.128S173.895,71.242,173.895,73.809Z" transform="translate(-164.614 -64.681)" fill="#d4d5dd"/>
      <path id="Path_19698-2" data-name="Path 19698" d="M172.838,73.809a4.638,4.638,0,0,1-4.641,4.633V64.681S172.838,71.242,172.838,73.809Z" transform="translate(-163.557 -64.681)" fill="#b5b7cf"/>
    </g>
    <g id="image_smalllighting" data-name="image/smalllighting" transform="translate(80.266 45.444)">
      <path id="Path_19699" data-name="Path 19699" d="M77.356,354.028l4.076-11.98-9.4,14.758h6.911l-4.076,11.98c9-14.13,7.348-11.54,9.4-14.758Z" transform="translate(-72.027 -342.048)" fill="#ffe230"/>
    </g>
    <g id="image_biglighting" data-name="image/biglighting" transform="translate(53.182 45.444)">
      <path id="Path_19682" data-name="Path 19682" d="M61.936,364.586l7.259-21.338L52.444,369.534H64.752l-7.259,21.338c16.03-25.166,13.088-20.552,16.751-26.286Z" transform="translate(-52.444 -343.248)" fill="#ec008c"/>
      <path id="Path_19683" data-name="Path 19683" d="M68.227,343.248l-11.6,23.812h11.6l-11.7,23.812,16.751-26.286H60.969Z" transform="translate(-51.477 -343.248)" fill="#e6b7d3"/>
    </g>
  </g>
  <g id="img100px_snowDay" data-name="img100px/snowDay" opacity="0">
    <g id="Rectangle_1159" data-name="Rectangle 1159" fill="none" stroke="#707070" stroke-width="1" opacity="0">
      <rect width="100" height="100" stroke="none"/>
      <rect x="0.5" y="0.5" width="99" height="99" fill="none"/>
    </g>
    <g id="Component_70_7" data-name="Component 70 – 7" transform="translate(6.287 16.748)">
      <path id="Path_19691-5" data-name="Path 19691" d="M108.038,160.2a14.312,14.312,0,0,1-4.232,10.187A14.46,14.46,0,0,1,93.592,174.6H33.165a12.512,12.512,0,1,1,6.125-23.43A7.637,7.637,0,0,1,52.584,144a19.211,19.211,0,0,1,17.871-17.82c.435-.039.869-.052,1.316-.052a19.243,19.243,0,0,1,19.265,19.212c0,.242-.026.47-.039.714A14.4,14.4,0,0,1,108.038,160.2Z" transform="translate(-20.612 -126.124)" fill="#4a519f"/>
      <path id="Path_19692-5" data-name="Path 19692" d="M96.919,160.2A14.519,14.519,0,0,1,92.8,170.385a13.863,13.863,0,0,1-9.929,4.218H60.383V126.176c.423-.039.844-.052,1.279-.052A18.979,18.979,0,0,1,80.39,145.336c0,.242-.026.47-.038.714a13.7,13.7,0,0,1,2.523-.244A14.227,14.227,0,0,1,96.919,160.2Z" transform="translate(-9.493 -126.124)" fill="#686dac"/>
      <path id="Path_19693-5" data-name="Path 19693" d="M75.864,144.085H74.037a12.418,12.418,0,0,0-12.4-12.4c-.387,0-.772.02-1.151.054l-.166-1.82c.434-.039.874-.061,1.317-.061A14.247,14.247,0,0,1,75.864,144.085Z" transform="translate(-10.247 -125.31)" fill="#fff"/>
    </g>
    <g id="image_snow" data-name="image/snow" transform="translate(42.846 68.948)">
      <path id="Path_19674" data-name="Path 19674" d="M264.189,182.391a.859.859,0,0,1-.859-.859V168.945a.859.859,0,0,1,1.718,0v12.588A.859.859,0,0,1,264.189,182.391Z" transform="translate(-257.033 -168.086)" fill="#d4d5dd"/>
      <path id="Path_19675" data-name="Path 19675" d="M271.059,175.521h-12.59a.858.858,0,1,1,0-1.716h12.59a.858.858,0,1,1,0,1.716Z" transform="translate(-257.609 -167.51)" fill="#d4d5dd"/>
      <path id="Path_19676" data-name="Path 19676" d="M269.048,180.38a.86.86,0,0,1-.608-.251l-8.9-8.9a.858.858,0,1,1,1.214-1.214l8.9,8.9a.858.858,0,0,1-.608,1.465Z" transform="translate(-257.44 -167.918)" fill="#d4d5dd"/>
      <path id="Path_19677" data-name="Path 19677" d="M260.143,180.38a.858.858,0,0,1-.606-1.465l8.9-8.9a.859.859,0,0,1,1.215,1.214l-8.9,8.9A.857.857,0,0,1,260.143,180.38Z" transform="translate(-257.44 -167.918)" fill="#d4d5dd"/>
    </g>
    <g id="image_snow-2" data-name="image/snow" transform="translate(73.191 72.183)">
      <path id="Path_19674-2" data-name="Path 19674" d="M264.189,182.391a.859.859,0,0,1-.859-.859V168.945a.859.859,0,0,1,1.718,0v12.588A.859.859,0,0,1,264.189,182.391Z" transform="translate(-257.033 -168.086)" fill="#d4d5dd"/>
      <path id="Path_19675-2" data-name="Path 19675" d="M271.059,175.521h-12.59a.858.858,0,1,1,0-1.716h12.59a.858.858,0,1,1,0,1.716Z" transform="translate(-257.609 -167.51)" fill="#d4d5dd"/>
      <path id="Path_19676-2" data-name="Path 19676" d="M269.048,180.38a.86.86,0,0,1-.608-.251l-8.9-8.9a.858.858,0,1,1,1.214-1.214l8.9,8.9a.858.858,0,0,1-.608,1.465Z" transform="translate(-257.44 -167.918)" fill="#d4d5dd"/>
      <path id="Path_19677-2" data-name="Path 19677" d="M260.143,180.38a.858.858,0,0,1-.606-1.465l8.9-8.9a.859.859,0,0,1,1.215,1.214l-8.9,8.9A.857.857,0,0,1,260.143,180.38Z" transform="translate(-257.44 -167.918)" fill="#d4d5dd"/>
    </g>
    <g id="image_snow-3" data-name="image/snow" transform="translate(16.5 71.836)">
      <path id="Path_19674-3" data-name="Path 19674" d="M264.189,182.391a.859.859,0,0,1-.859-.859V168.945a.859.859,0,0,1,1.718,0v12.588A.859.859,0,0,1,264.189,182.391Z" transform="translate(-257.033 -168.086)" fill="#d4d5dd"/>
      <path id="Path_19675-3" data-name="Path 19675" d="M271.059,175.521h-12.59a.858.858,0,1,1,0-1.716h12.59a.858.858,0,1,1,0,1.716Z" transform="translate(-257.609 -167.51)" fill="#d4d5dd"/>
      <path id="Path_19676-3" data-name="Path 19676" d="M269.048,180.38a.86.86,0,0,1-.608-.251l-8.9-8.9a.858.858,0,1,1,1.214-1.214l8.9,8.9a.858.858,0,0,1-.608,1.465Z" transform="translate(-257.44 -167.918)" fill="#d4d5dd"/>
      <path id="Path_19677-3" data-name="Path 19677" d="M260.143,180.38a.858.858,0,0,1-.606-1.465l8.9-8.9a.859.859,0,0,1,1.215,1.214l-8.9,8.9A.857.857,0,0,1,260.143,180.38Z" transform="translate(-257.44 -167.918)" fill="#d4d5dd"/>
    </g>
  </g>
</svg>
