<svg xmlns="http://www.w3.org/2000/svg" width="39.459" height="27.922" viewBox="0 0 39.459 27.922"><g transform="translate(-4.541 -3.387)"><g transform="translate(4.541 3.387)"><path d="M49.261,58.768a11.247,11.247,0,0,0-10.842-11.3,11.028,11.028,0,1,0,10.842,11.3" transform="translate(-27.264 -47.467)" fill="#ec008c"/></g><g transform="translate(6.035 10.039)"><path d="M58.577,141.074a6.312,6.312,0,0,1-1.838,4.469,6.247,6.247,0,0,1-4.435,1.851H26.063a5.49,5.49,0,0,1,0-10.979,5.364,5.364,0,0,1,2.66.7,3.4,3.4,0,0,1-.206-1.146,3.315,3.315,0,0,1,5.979-2,8.386,8.386,0,0,1,7.761-7.818c.189-.017.377-.023.571-.023a8.4,8.4,0,0,1,8.366,8.429c0,.106-.011.206-.017.313a6.228,6.228,0,0,1,1.127-.107A6.3,6.3,0,0,1,58.577,141.074Z" transform="translate(-20.612 -126.124)" fill="#4a519f"/><path d="M76.249,141.074a6.4,6.4,0,0,1-1.787,4.469,5.99,5.99,0,0,1-4.312,1.851H60.383V126.147c.184-.017.367-.023.556-.023a8.287,8.287,0,0,1,8.133,8.429c0,.106-.011.206-.016.313a5.891,5.891,0,0,1,1.1-.107A6.212,6.212,0,0,1,76.249,141.074Z" transform="translate(-38.284 -126.124)" fill="#686dac"/><path d="M67.067,136.1h-.794a5.421,5.421,0,0,0-5.387-5.442c-.168,0-.335.009-.5.024l-.072-.8c.188-.017.379-.027.572-.027A6.219,6.219,0,0,1,67.067,136.1Z" transform="translate(-38.573 -127.86)" fill="#fff"/></g></g></svg>