<svg id="Branding_Logo_Main_Sh_n_ElJoe" data-name="Branding/Logo/ Main/Sh&apos;n ElJoe" xmlns="http://www.w3.org/2000/svg" width="200" height="180" viewBox="0 0 200 180">
  <g id="background">
    <path id="background-2" data-name="background" d="M198.766,135.579a9.829,9.829,0,0,0-9.531-7.479H189a13.3,13.3,0,0,0-2.849-3.641,9.849,9.849,0,0,0,2.565-6.259c.7-19.741-12.7-35.506-32.091-38.085a49.814,49.814,0,0,0-1.376-5.245,25.082,25.082,0,0,0,12.663-3.433A27.162,27.162,0,0,0,179.2,36.1c-5.247-11.317-14.739-17.714-27.453-18.462-1.631-.1-3.3-.148-5.109-.148-3.763,0-7.438.207-11,.4l-2.751.148c-1.552.079-3.036.157-4.471.187A22.218,22.218,0,0,0,117.173,2.854,21.316,21.316,0,0,0,106.364,0a26.492,26.492,0,0,0-6.957.984A25.893,25.893,0,0,0,83.981,12.154a24.19,24.19,0,0,0-3.41,14.978,35.05,35.05,0,0,0,1.965,8.926l-.265.413a13.047,13.047,0,0,0-1.484,8.857,39.462,39.462,0,0,0-23.513-8.434h-.58A40.166,40.166,0,0,0,16.969,75.116,39.537,39.537,0,0,0,27.286,103.33c-.54.207-1.091.423-1.641.689A25.491,25.491,0,0,0,11.015,126.86a9.857,9.857,0,0,0,0,1.083,19.81,19.81,0,0,0-11,16.336,4.513,4.513,0,0,0,0,.522v.915a21.952,21.952,0,0,0,3.174,11.957,9.854,9.854,0,0,0,1.179,6.5l5.011,8.739A9.82,9.82,0,0,0,19.9,177.649c8.843-1.85,14.385-4.232,17.686-7.735H47.636a13.36,13.36,0,0,0,3.459,6.141,13.2,13.2,0,0,0,22.236-6.141h1.6a9.447,9.447,0,0,0,1.582.128l10.563-.089a10.041,10.041,0,0,0,1.336-.1,19.681,19.681,0,0,0,2.6-.571,9.871,9.871,0,0,0,3.783.758l5.021-.089a10.653,10.653,0,0,0,1.248-.1,16.017,16.017,0,0,0,9.5-4.684c3.636,8.67,11.791,13.649,22.953,13.649,1.287,0,2.623-.059,3.979-.187h.059c7.458-.8,13.393-3.818,17.333-8.709H157a24.33,24.33,0,0,0,3.2-.207,21.248,21.248,0,0,0,3.773,1.073,9.959,9.959,0,0,0,1.621.167h1.444a22.157,22.157,0,0,0,8.4-1.693,21.312,21.312,0,0,0,5.375.679c8.843,0,18.522-5.659,19.18-21.542v-.413a52.294,52.294,0,0,0-1.277-12.419" transform="translate(-0.002 0.001)" fill="#fff"/>
  </g>
  <g id="sun" transform="translate(26.788 46.713)">
    <path id="sun-2" data-name="sun" d="M87.07,78.193c.452-16.139-13.324-30.507-29.477-30.723-15.879-.226-29.664,12.882-30.3,28.795-.678,16.287,12.489,30.428,28.927,31.156,16.262.718,30.381-12.665,30.853-29.228" transform="translate(-27.264 -47.467)" fill="#ec008c"/>
  </g>
  <g id="Cloud" transform="translate(20.839 9.888)">
    <path id="Cloud-2" data-name="Cloud" d="M179.268,118.015a11.779,11.779,0,0,0-15.613,2.411.844.844,0,0,0-.069.1,12.037,12.037,0,0,0-2.623,6.958l-.344.413a12.173,12.173,0,0,0-2.515,5.9l-1.857.335a8.381,8.381,0,0,0-1.562.453,8.263,8.263,0,0,0-8.853-1.466l-.983.4a12.565,12.565,0,0,0-1.837-2.45,11.854,11.854,0,0,0-20.064,5.836l-2.781-.276a8.3,8.3,0,0,0-6.976,2.637c-.118-5.1-.393-9.841-.816-14.161a8.367,8.367,0,0,0-8.313-7.548H93.95a8.5,8.5,0,0,0-1.228.1,8.653,8.653,0,0,0-1.248-.1H81.334a8.361,8.361,0,0,0-8.254,9.546c.108.728.2,1.456.285,2.195a24.135,24.135,0,0,0-7.468-2.421l-.462-.059a46.111,46.111,0,0,0-14.306.984,8.362,8.362,0,0,0-6.593,8.3l.088,5.964H41.314c-.128-2.48-.314-4.842-.55-7.066a8.359,8.359,0,0,0-7.055-7.371,60.538,60.538,0,0,0-8.991-.738c-1.238,0-2.4.049-3.508.148a15.58,15.58,0,0,1,8.971-13.984,26.232,26.232,0,0,1,6.79-1.693c2.142-.364,4.333-.413,7.1-.65,0-4.094-.373-7.952.069-11.711A27.068,27.068,0,0,1,69.494,75.2c2.948-.167,4.736-.984,6.259-3.759A38.706,38.706,0,0,1,94.7,54.167a43.053,43.053,0,0,0,7.615-25.9A36.461,36.461,0,0,1,98.834,52.7a39.6,39.6,0,0,1,17.559-.984,37.615,37.615,0,0,1,26.638,18.9c1.336-5.452,2.9-11.416,3.616-14.387a.847.847,0,0,0-.108-.679,22.62,22.62,0,0,0-2.506-2.628,13.833,13.833,0,0,0-6.318-2.568c-3.862-.728-7.723-1.348-11.594-1.968a25.629,25.629,0,0,1-13.953-6.721c-.983-.984-1.965-2.1-2.879-3.149l.147-.148a23.191,23.191,0,0,0,9.826,5.816,13.075,13.075,0,0,1-1.248-4.635,1.967,1.967,0,0,1,.177.157,18.8,18.8,0,0,0,5.3,5.422,2.759,2.759,0,0,0,.983.413,100.081,100.081,0,0,0,11.5,1.653,24.529,24.529,0,0,1,5.8.9,1.393,1.393,0,0,0,1.287-.157,20.011,20.011,0,0,0,6.338-6.308l.314-.472a27.036,27.036,0,0,1-3.763,9.024,21.144,21.144,0,0,0,13.815-7.164,15.6,15.6,0,0,1-11.142,9.89c.432.984.825,1.9,1.268,2.824.049.128.265.217.413.246a18.2,18.2,0,0,0,8.3,0c1.513-.374,2.948-.984,4.422-1.4-3.636,4.241-8.381,5.442-13.835,4.537v.157a4.312,4.312,0,0,0,.462.266c.8.305,1.572.65,2.378.886a13.222,13.222,0,0,0,16.281-8.69c2.1-6.18-.177-15.864-9.561-19a33.362,33.362,0,0,0-8.784-1.594,89.758,89.758,0,0,0-14.169.61c-3.527.364-7.055.827-10.592.984a18.759,18.759,0,0,1-14.159-4.822,12.609,12.609,0,0,1-4.088-6.436,6.006,6.006,0,0,1,3.144-7.017c.108-.059.216-.138.393-.256l-.393-.138c-.187-.049-.373-.118-.56-.157a13.255,13.255,0,0,0-5.316-.177A12.786,12.786,0,0,0,93.8,25.441a23.958,23.958,0,0,0,1.307,9.083c.668,2.106,1.405,4.192,2.034,6.308a7.254,7.254,0,0,1,.079,3.936,2.7,2.7,0,0,1-3.164,2.283,4.284,4.284,0,0,1-2.761-1.83,3.745,3.745,0,0,1-.275-3.474,11.462,11.462,0,0,0,.668,1.289,1.139,1.139,0,0,0,1.867.167,3.671,3.671,0,0,0,.757-1.191,4.3,4.3,0,0,0,0-3.257c-.521-1.437-1.061-2.854-1.6-4.271a27.806,27.806,0,0,1-1.965-7.873,14.425,14.425,0,0,1,1.965-9.024A15.948,15.948,0,0,1,102.45,10.7c3.508-.984,7.016-.984,10.238.905,4.422,2.559,6.809,6.406,6.691,11.642a1.706,1.706,0,0,1,0,.315,2.176,2.176,0,0,1-.118.217,7.051,7.051,0,0,0-1.847-3.828,6.13,6.13,0,0,0-2.948-1.87c-1.454-.4-2.289.305-2.132,1.8a2.479,2.479,0,0,0,0,.266,9.557,9.557,0,0,0,3.547,5.6,13.094,13.094,0,0,0,6.485,2.244,66.292,66.292,0,0,0,11.526.069,159.722,159.722,0,0,1,17.628-.4c8.843.531,15.348,4.665,19.111,12.793a17.3,17.3,0,0,1-7.31,22.634,16.138,16.138,0,0,1-13.363,1.2c-.8-.236-1.562-.541-2.378-.827-.629,1.673-1.965,5.757-3.292,9.7.059.108.108.216.157.325a42.037,42.037,0,0,1,3.223,10.323c.983,5.6.983,5.6,6.77,6.141,14.925,1.388,25.36,13.2,24.83,28.116" transform="translate(-21.21 -10.047)" fill="#4a519f"/>
  </g>
  <g id="sh_n_eljoe_word" data-name="sh&apos;n eljoe word" transform="translate(9.824 124.289)">
    <path id="dot" d="M139,138.913a3.416,3.416,0,0,0-4.913,0,3.566,3.566,0,0,0,0,5.039,3.416,3.416,0,0,0,4.913,0,3.616,3.616,0,0,0,0-5.039" transform="translate(-12.143 -126.481)" fill="#ec008c"/>
    <path id="_3_dots" data-name="3 dots" d="M182.218,133.7a3.475,3.475,0,0,0-2.24-.866,3.3,3.3,0,0,0-2.712,1.25,3.684,3.684,0,0,0-.845,2.293A3.56,3.56,0,0,0,179.889,140a3.28,3.28,0,0,0,2.7-1.25,3.6,3.6,0,0,0,.845-2.313,3.368,3.368,0,0,0-1.218-2.736m-4.756-6.534a3.515,3.515,0,0,0-2.27-.866,3.29,3.29,0,0,0-2.7,1.23,3.694,3.694,0,0,0-.845,2.313,3.328,3.328,0,0,0,1.228,2.736,3.485,3.485,0,0,0,2.24.866,3.26,3.26,0,0,0,2.7-1.26,3.654,3.654,0,0,0,.845-2.283,3.368,3.368,0,0,0-1.2-2.736m-2.948,7.351a3.583,3.583,0,0,0-2.26-.856,3.25,3.25,0,0,0-2.7,1.25,3.6,3.6,0,0,0-.845,2.283,3.358,3.358,0,0,0,1.228,2.755,3.436,3.436,0,0,0,2.24.866,3.29,3.29,0,0,0,2.7-1.23,3.684,3.684,0,0,0,.845-2.3,3.457,3.457,0,0,0-1.209-2.765M155.6,162.072h0" transform="translate(-12.536 -126.297)" fill="#ec008c"/>
    <path id="l" d="M105.38,127.77q.875,8.857.865,19.889,0,4.645-.147,9.684v.108q0,3.936-4.834,4.694l-4.844.089.236-9.615c.069-1.653.1-3.307.1-4.92a131.567,131.567,0,0,0-1.511-19.878Z" transform="translate(-11.485 -126.321)" fill="#ec008c"/>
    <path id="joe" d="M81.129,127.77A114.072,114.072,0,0,1,82.4,144.618q0,3.887-.246,7.715H75.027a15.888,15.888,0,0,0,.206-2.086q0-11.455-10.867-13.207a29.929,29.929,0,0,0-3.017-.148,41.207,41.207,0,0,0-8.666.984l.147,10.609a22.207,22.207,0,0,1,8.008-1.7h1.189c2.181.167,3.272,1.269,3.272,3.326a3.822,3.822,0,0,1-.757,2.135l-15.289.1v-.059H36.107c-1.828-.089-2.869-.413-3.125-.984q-.069-7.469-.727-13.551a51.77,51.77,0,0,0-7.733-.65Q10.884,137.148,10,147.157v.59Q10,158.7,21.948,158.7h.825v.787a8.3,8.3,0,0,1-3.469,1.2,62.711,62.711,0,0,1-6.259.65l5.011,8.739q11.162-2.332,13.039-5.55a10.835,10.835,0,0,0,1.061-2.864,15.55,15.55,0,0,0,3.93.453H76.648v.128l10.484-.089q4.864-.709,4.913-4.694v-.108q.147-5.039.147-9.684,0-11.071-.865-19.889Zm-57.913,24.6a3.338,3.338,0,0,1-3.066-3.543c0-1.968.727-2.952,2.172-2.952a5.336,5.336,0,0,1,.983.138Z" transform="translate(-10 -126.321)" fill="#ec008c"/>
    <path id="dotjoe" d="M63.9,166.864a3.368,3.368,0,0,1,.983,2.45,3.418,3.418,0,0,1-.983,2.47,3.26,3.26,0,0,1-2.4.984,3.3,3.3,0,0,1-2.427-.984,3.418,3.418,0,0,1-.983-2.47,3.368,3.368,0,0,1,.983-2.45,3.3,3.3,0,0,1,2.427-.984,3.26,3.26,0,0,1,2.4.984" transform="translate(-10.838 -126.927)" fill="#ec008c"/>
    <path id="what" d="M192.313,150.227q-.5,12.114-9.364,12.114c-3.1,0-5.208-.984-6.338-2.755-.983,2.411-3.577,3.671-7.674,3.769h-1.032a9.376,9.376,0,0,1-4.255-1.85,11.775,11.775,0,0,1-4.54.817h-4.146a13.863,13.863,0,0,1-3.4-.423q-2.76,8.139-12.92,9.211-1.572.148-3.066.148-13.972,0-15.151-12.892c-.088-.905-.128-1.87-.128-2.874a51.819,51.819,0,0,1,.776-8.453l10.337,1.053a44.968,44.968,0,0,0-1.2,8.936c0,.472,0,.915,0,1.338.216,2.254,2.1,3.385,5.689,3.385a13.249,13.249,0,0,0,1.837-.089q5.64-.561,5.64-6.121a32.766,32.766,0,0,0-1.67-8.739l9.1-3.936a59.861,59.861,0,0,1,1.6,8.906c.334.453,1.3.709,2.879.777h3.419c1.268,0,1.965-.374,2.113-1.122a6.348,6.348,0,0,0,.128-1.329,10.693,10.693,0,0,0-.108-1.447,17.063,17.063,0,0,0-1.4-4.251l9.433-1.722a26.521,26.521,0,0,1,.757,6.751,6.011,6.011,0,0,0,.108.817c.324,2.362.875,3.533,1.67,3.533s1.159-.807,1.159-2.431a32.455,32.455,0,0,0-.59-6.387l8.224-1.122a27.386,27.386,0,0,0-.275,3.562q0,5.088,1.4,5.088c.531,0,.983-.453,1.248-1.348a12.31,12.31,0,0,0,.442-3.7,23.286,23.286,0,0,0-1.14-6.21l9.423-1.063a42.812,42.812,0,0,1,.983,10.057" transform="translate(-11.921 -126.518)" fill="#ec008c"/>
  </g>
</svg>
